<?xml version="1.0" encoding="utf-8"?>
<!-- Generator: Adobe Illustrator 23.0.1, SVG Export Plug-In . SVG Version: 6.00 Build 0)  -->
<svg version="1.1" id="Camada_1" xmlns="http://www.w3.org/2000/svg" xmlns:xlink="http://www.w3.org/1999/xlink" x="0px" y="0px"
	 viewBox="0 0 109.4 93.3" style="enable-background:new 0 0 109.4 93.3;" xml:space="preserve">
<style type="text/css">
	.st0{fill:#538DD1;}
</style>
<g>
	<g>
		<path class="st0" d="M2.1,1.8h1.4v25.1H2.1V1.8z M2.9,13.7h24.4c1.4,0,2.6-0.2,3.5-0.7s1.6-1.1,2-1.9c0.4-0.8,0.7-1.7,0.7-2.7
			s-0.2-1.9-0.7-2.7c-0.4-0.8-1.1-1.4-2-1.9c-0.9-0.5-2.1-0.7-3.5-0.7H2.9V1.8h24c1.9,0,3.5,0.3,4.6,0.9c1.2,0.6,2,1.4,2.6,2.4
			c0.5,1,0.8,2.1,0.8,3.3c0,0.9-0.2,1.8-0.5,2.6s-0.8,1.5-1.5,2.2c-0.7,0.6-1.6,1.1-2.7,1.4l0.7-0.7c1.5,0.2,2.7,0.6,3.6,1.2
			c0.9,0.6,1.6,1.4,2,2.3c0.4,0.9,0.6,1.9,0.6,3c0,0.9-0.2,1.7-0.4,2.5c-0.3,0.8-0.8,1.5-1.4,2.1c-0.6,0.6-1.5,1.1-2.5,1.4
			c-1,0.3-2.2,0.5-3.7,0.5H2.9v-1.3h26.5c2.1,0,3.7-0.5,4.7-1.5c1-1,1.5-2.3,1.5-3.8s-0.5-2.8-1.5-3.8c-1-1-2.6-1.5-4.7-1.5H2.9
			V13.7z"/>
		<path class="st0" d="M42.2,0H49v26.9h-6.8V0z M44.2,0h18.8v5.6H44.2V0z M44.2,10.9h17v5h-17V10.9z M44.2,21.4h18.6v5.6H44.2V21.4z
			"/>
		<path class="st0" d="M7.7,33.1h25v5.5h-25V33.1z M16.7,33.1h7V60h-7V33.1z"/>
		<path class="st0" d="M36.9,33.1h8.2V60h-8.2V33.1z M40.4,43.8h31.5v5.3H40.4V43.8z M67,33.1h8.2V60H67V33.1z"/>
		<path class="st0" d="M80.8,33h6.8V60h-6.8V33z M82.8,33h18.8v5.6H82.8V33z M82.8,43.9h17v5h-17V43.9z M82.8,54.4h18.6V60H82.8
			V54.4z"/>
		<path class="st0" d="M0,66.1h7V93H0V66.1z M2.7,77h19.6v5.3H2.7V77z M17.9,66.1h7V93h-7V66.1z"/>
		<path class="st0" d="M29.3,67.9h1.4V93h-1.4V67.9z M30,67.9h10v1.3H30V67.9z M30,79.7h8.6V81H30V79.7z M30,91.7h9.3V93H30V91.7z"
			/>
		<path class="st0" d="M42.9,66.1h7V93h-7C42.9,93,42.9,66.1,42.9,66.1z M48,66.1h7.5c2.2,0,4.1,0.2,5.6,0.7s2.7,1.2,3.7,2
			c0.9,0.9,1.6,2,2,3.3s0.6,2.7,0.6,4.3c0,1.6-0.2,2.9-0.6,4.2s-1.1,2.3-2,3.2s-2.1,1.6-3.7,2s-3.4,0.7-5.6,0.7H48v-4.6h7.6
			c0.9,0,1.8-0.1,2.4-0.3c0.7-0.2,1.2-0.6,1.7-1s0.7-1,0.9-1.6c0.2-0.7,0.3-1.4,0.3-2.2c0-0.8-0.1-1.5-0.3-2.2
			c-0.2-0.7-0.5-1.2-0.9-1.7c-0.4-0.4-1-0.8-1.7-1s-1.5-0.3-2.4-0.3H48L48,66.1L48,66.1z M56,84.7h4.4c0.6,0,1.2,0.1,1.7,0.4
			s1,0.6,1.4,1.1s0.9,1,1.3,1.7l2.7,5.2h-7.3L56,84.7z"/>
		<path class="st0" d="M78.5,91.7c-2.6-1.1-4.6-2.7-6-4.9s-2.1-5-2.1-8.3c0-3.3,0.7-6,2.1-8.2s3.4-3.8,6-4.8s5.6-1.6,9.2-1.6h4.4
			c3.5,0,6.6,0.5,9.2,1.6c2.6,1.1,4.6,2.7,6,4.8s2.1,4.9,2.1,8.2c0,3.3-0.7,6.1-2.1,8.3s-3.4,3.8-6,4.9s-5.7,1.6-9.2,1.6h-4.4
			C84.1,93.3,81,92.8,78.5,91.7z M90.9,83.9c1,0,1.8-0.2,2.5-0.6c0.7-0.4,1.2-0.9,1.6-1.7s0.6-1.8,0.6-3.1c0-1.2-0.2-2.2-0.6-3
			c-0.4-0.8-0.9-1.3-1.6-1.7s-1.5-0.5-2.5-0.5h-2c-1,0-1.9,0.2-2.6,0.5s-1.2,0.9-1.6,1.7s-0.5,1.7-0.5,3c0,1.3,0.2,2.3,0.5,3.1
			s0.9,1.3,1.6,1.7c0.7,0.4,1.6,0.6,2.6,0.6H90.9z"/>
	</g>
</g>
</svg>
